<svg width="1440" height="860" viewBox="0 0 1440 860" fill="none" xmlns="http://www.w3.org/2000/svg">
  <rect width="1440" height="860" fill="#F7F9FC"/>

  <defs>
    <pattern id="dotGrid" x="0" y="0" width="34" height="34" patternUnits="userSpaceOnUse">
      <circle cx="17" cy="17" r="1.8" fill="#C7CDD8"/>
    </pattern>
    <filter id="softShadow" x="0" y="0" width="1440" height="860" filterUnits="userSpaceOnUse" color-interpolation-filters="sRGB">
      <feDropShadow dx="0" dy="10" stdDeviation="18" flood-color="#0F172A" flood-opacity="0.08"/>
    </filter>
  </defs>

  <rect width="1440" height="860" fill="url(#dotGrid)"/>

  <g filter="url(#softShadow)">
    <rect x="46" y="60" width="1348" height="120" rx="30" fill="white" stroke="#E7EBF2" stroke-width="2"/>

    <rect x="74" y="82" width="372" height="86" rx="33" fill="#A1A6B1" stroke="#757B87" stroke-width="4"/>
    <text x="260" y="136" text-anchor="middle" fill="white" font-family="Apple SD Gothic Neo, sans-serif" font-size="34" font-weight="800">학습 모드</text>

    <rect x="496" y="82" width="372" height="86" rx="33" fill="#ECEFF4" stroke="#D2D7E0" stroke-width="3"/>
    <text x="682" y="136" text-anchor="middle" fill="#111827" font-family="Apple SD Gothic Neo, sans-serif" font-size="34" font-weight="800">전시회 모드</text>

    <path d="M30 154H1340V760H30V154Z" fill="white" stroke="#6F737A" stroke-width="4"/>

    <rect x="102" y="206" width="586" height="132" rx="42" fill="white" stroke="#E6EAF1" stroke-width="3"/>
    <text x="148" y="284" fill="#111827" font-family="Apple SD Gothic Neo, sans-serif" font-size="32" font-weight="800">학습시킬 엔진 선택</text>

    <rect x="744" y="206" width="586" height="132" rx="42" fill="white" stroke="#E6EAF1" stroke-width="3"/>
    <text x="790" y="284" fill="#111827" font-family="Apple SD Gothic Neo, sans-serif" font-size="32" font-weight="800">리포트 결과 파일</text>

    <rect x="102" y="376" width="586" height="132" rx="42" fill="white" stroke="#E6EAF1" stroke-width="3"/>
    <text x="148" y="454" fill="#111827" font-family="Apple SD Gothic Neo, sans-serif" font-size="32" font-weight="800">플로우스코어 리포트</text>

    <rect x="744" y="376" width="586" height="132" rx="42" fill="white" stroke="#E6EAF1" stroke-width="3"/>
    <text x="790" y="454" fill="#111827" font-family="Apple SD Gothic Neo, sans-serif" font-size="32" font-weight="800">상담보고서</text>

    <rect x="102" y="546" width="586" height="132" rx="42" fill="white" stroke="#E6EAF1" stroke-width="3"/>
    <text x="148" y="624" fill="#111827" font-family="Apple SD Gothic Neo, sans-serif" font-size="32" font-weight="800">내부심사보고서</text>

    <rect x="744" y="546" width="586" height="132" rx="42" fill="white" stroke="#E6EAF1" stroke-width="3"/>
    <text x="790" y="624" fill="#111827" font-family="Apple SD Gothic Neo, sans-serif" font-size="32" font-weight="800">추가 정보</text>

    <rect x="92" y="728" width="1180" height="70" rx="26" fill="#F6F8FB" stroke="#E4E8EF" stroke-width="2"/>
    <rect x="108" y="742" width="280" height="42" rx="21" fill="#3B82F6"/>
    <text x="248" y="769" text-anchor="middle" fill="white" font-family="Apple SD Gothic Neo, sans-serif" font-size="22" font-weight="700">1. 입력 저장</text>
    <text x="548" y="769" text-anchor="middle" fill="#7C8799" font-family="Apple SD Gothic Neo, sans-serif" font-size="22" font-weight="700">2. 결과 보기</text>
    <text x="824" y="769" text-anchor="middle" fill="#7C8799" font-family="Apple SD Gothic Neo, sans-serif" font-size="22" font-weight="700">3. 제안서</text>
    <text x="1085" y="769" text-anchor="middle" fill="#7C8799" font-family="Apple SD Gothic Neo, sans-serif" font-size="22" font-weight="700">4. 이메일</text>
  </g>
</svg>
